<?xml version="1.0" encoding="utf-8"?>
<!-- Generator: Adobe Illustrator 19.2.1, SVG Export Plug-In . SVG Version: 6.00 Build 0)  -->
<svg version="1.1" xmlns="http://www.w3.org/2000/svg" xmlns:xlink="http://www.w3.org/1999/xlink" x="0px" y="0px"
	 viewBox="0 0 27.1 25" style="enable-background:new 0 0 27.1 25;" xml:space="preserve">
<style type="text/css">
	.st0{fill:url(#SVGID_1_);}
	.st1{fill:#FFFFFF;}
	.st2{fill:#3D5CAD;}
	.st3{fill:none;}
	.st4{fill:#6C88B1;}
	.st5{fill:#7FA0C3;}
	.st6{fill:#7C8AC6;}
	.st7{fill:#6BA2B9;}
	.st8{fill:#99BECD;}
	.st9{fill:#45484C;}
	.st10{fill:url(#SVGID_2_);}
	.st11{fill:none;stroke:#FFFFFF;stroke-miterlimit:10;}
	.st12{clip-path:url(#SVGID_4_);}
	.st13{fill:none;stroke:#45484C;stroke-miterlimit:10;}
	.st14{clip-path:url(#SVGID_6_);}
</style>
<g id="Layer_2">
	<g>
		<path class="st1" d="M24.8,4.7H2.4C1.1,4.7,0,3.7,0,2.4v0C0,1.1,1.1,0,2.4,0h22.4c1.3,0,2.4,1.1,2.4,2.4v0
			C27.1,3.7,26.1,4.7,24.8,4.7z"/>
		<path class="st1" d="M24.8,14.9H2.4c-1.3,0-2.4-1.1-2.4-2.4v0c0-1.3,1.1-2.4,2.4-2.4h22.4c1.3,0,2.4,1.1,2.4,2.4v0
			C27.1,13.8,26.1,14.9,24.8,14.9z"/>
		<path class="st1" d="M24.8,25H2.4C1.1,25,0,23.9,0,22.6v0c0-1.3,1.1-2.4,2.4-2.4h22.4c1.3,0,2.4,1.1,2.4,2.4v0
			C27.1,23.9,26.1,25,24.8,25z"/>
	</g>
</g>
<g id="Foto_home">
</g>
<g id="Contenido">
</g>
<g id="Menú">
</g>
</svg>
